<mxfile host="65bd71144e">
    <diagram id="FBN0uK-IuXZ9Yb41QK8V" name="Page-1">
        <mxGraphModel dx="2253" dy="857" grid="1" gridSize="10" guides="1" tooltips="1" connect="1" arrows="1" fold="1" page="1" pageScale="1" pageWidth="850" pageHeight="1100" math="0" shadow="0">
            <root>
                <mxCell id="0"/>
                <mxCell id="1" parent="0"/>
                <UserObject label="" lucidchartObjectId="4xwLouG-UXPv" id="77">
                    <mxCell style="html=1;jettySize=18;whiteSpace=wrap;fontSize=13;strokeColor=#333333;strokeOpacity=100;strokeWidth=0.8;rounded=1;arcSize=24;edgeStyle=orthogonalEdgeStyle;startArrow=ERmany;startSize=10;endArrow=ERone;endSize=16;exitX=1.002;exitY=0.44;exitPerimeter=0;entryX=-0.002;entryY=0.846;entryPerimeter=0;" edge="1" parent="1" source="79" target="90">
                        <mxGeometry width="100" height="100" relative="1" as="geometry">
                            <Array as="points"/>
                        </mxGeometry>
                    </mxCell>
                </UserObject>
                <UserObject label="" lucidchartObjectId="4xwLI~ZSL93J" id="78">
                    <mxCell style="html=1;jettySize=18;whiteSpace=wrap;fontSize=13;strokeColor=#333333;strokeOpacity=100;strokeWidth=0.8;rounded=1;arcSize=24;edgeStyle=orthogonalEdgeStyle;startArrow=ERone;startSize=16;endArrow=ERone;endSize=16;exitX=-0.002;exitY=0.44;exitPerimeter=0;entryX=-0.002;entryY=0.524;entryPerimeter=0;" edge="1" parent="1" source="79" target="95">
                        <mxGeometry width="100" height="100" relative="1" as="geometry">
                            <Array as="points"/>
                        </mxGeometry>
                    </mxCell>
                </UserObject>
                <mxCell id="79" value="Entity" style="html=1;overflow=block;blockSpacing=1;swimlane;resizeParent=1;resizeParentMax=0;resizeLast=0;collapsible=0;marginBottom=0;fontStyle=0;swimlaneFillColor=#ffffff;startSize=30;whiteSpace=wrap;fontSize=13;align=left;fillColor=#e0e0e0;spacing=0;strokeColor=#282c33;strokeOpacity=100;fillOpacity=100;rounded=1;absoluteArcSize=1;arcSize=7.5;strokeWidth=0.8;" vertex="1" parent="1">
                    <mxGeometry x="575" y="117" width="210" height="150" as="geometry"/>
                </mxCell>
                <mxCell id="80" value="Employee ID" style="strokeColor=none;part=1;resizeHeight=0;align=left;verticalAlign=top;spacingLeft=4;spacingRight=4;overflow=hidden;rotatable=0;points=[[0,0.5],[1,0.5]];portConstraint=eastwest;swimlaneFillColor=#ffffff;whiteSpace=wrap;fontSize=13;fillColor=none;strokeOpacity=100;fillOpacity=100;spacing=0;rounded=1;absoluteArcSize=1;arcSize=7.5;strokeWidth=0.8;" vertex="1" parent="79">
                    <mxGeometry y="30" width="30" height="24" as="geometry"/>
                </mxCell>
                <mxCell id="81" value="Type" style="shape=partialRectangle;top=0;right=0;bottom=0;part=1;resizeHeight=0;align=left;verticalAlign=top;spacingLeft=4;spacingRight=4;overflow=hidden;rotatable=0;points=[[0,0.5],[1,0.5]];portConstraint=eastwest;swimlaneFillColor=#ffffff;whiteSpace=wrap;fontSize=13;fillColor=none;strokeOpacity=100;fillOpacity=100;spacing=0;strokeColor=#282c33;rounded=1;absoluteArcSize=1;arcSize=7.5;strokeWidth=0.8;" vertex="1" parent="79">
                    <mxGeometry x="30" y="30" width="180" height="24" as="geometry"/>
                </mxCell>
                <mxCell id="82" value="Name" style="strokeColor=none;part=1;resizeHeight=0;align=left;verticalAlign=top;spacingLeft=4;spacingRight=4;overflow=hidden;rotatable=0;points=[[0,0.5],[1,0.5]];portConstraint=eastwest;swimlaneFillColor=#ffffff;whiteSpace=wrap;fontSize=13;fillColor=none;strokeOpacity=100;fillOpacity=100;spacing=0;rounded=1;absoluteArcSize=1;arcSize=7.5;strokeWidth=0.8;" vertex="1" parent="79">
                    <mxGeometry y="54" width="30" height="24" as="geometry"/>
                </mxCell>
                <mxCell id="83" value="Type" style="shape=partialRectangle;top=0;right=0;bottom=0;part=1;resizeHeight=0;align=left;verticalAlign=top;spacingLeft=4;spacingRight=4;overflow=hidden;rotatable=0;points=[[0,0.5],[1,0.5]];portConstraint=eastwest;swimlaneFillColor=#ffffff;whiteSpace=wrap;fontSize=13;fillColor=none;strokeOpacity=100;fillOpacity=100;spacing=0;strokeColor=#282c33;rounded=1;absoluteArcSize=1;arcSize=7.5;strokeWidth=0.8;" vertex="1" parent="79">
                    <mxGeometry x="30" y="54" width="180" height="24" as="geometry"/>
                </mxCell>
                <mxCell id="84" value="Address" style="strokeColor=none;part=1;resizeHeight=0;align=left;verticalAlign=top;spacingLeft=4;spacingRight=4;overflow=hidden;rotatable=0;points=[[0,0.5],[1,0.5]];portConstraint=eastwest;swimlaneFillColor=#ffffff;whiteSpace=wrap;fontSize=13;fillColor=none;strokeOpacity=100;fillOpacity=100;spacing=0;rounded=1;absoluteArcSize=1;arcSize=7.5;strokeWidth=0.8;" vertex="1" parent="79">
                    <mxGeometry y="78" width="30" height="24" as="geometry"/>
                </mxCell>
                <mxCell id="85" value="Type" style="shape=partialRectangle;top=0;right=0;bottom=0;part=1;resizeHeight=0;align=left;verticalAlign=top;spacingLeft=4;spacingRight=4;overflow=hidden;rotatable=0;points=[[0,0.5],[1,0.5]];portConstraint=eastwest;swimlaneFillColor=#ffffff;whiteSpace=wrap;fontSize=13;fillColor=none;strokeOpacity=100;fillOpacity=100;spacing=0;strokeColor=#282c33;rounded=1;absoluteArcSize=1;arcSize=7.5;strokeWidth=0.8;" vertex="1" parent="79">
                    <mxGeometry x="30" y="78" width="180" height="24" as="geometry"/>
                </mxCell>
                <mxCell id="86" value="Field" style="strokeColor=none;part=1;resizeHeight=0;align=left;verticalAlign=top;spacingLeft=4;spacingRight=4;overflow=hidden;rotatable=0;points=[[0,0.5],[1,0.5]];portConstraint=eastwest;swimlaneFillColor=#ffffff;whiteSpace=wrap;fontSize=13;fillColor=none;strokeOpacity=100;fillOpacity=100;spacing=0;rounded=1;absoluteArcSize=1;arcSize=7.5;strokeWidth=0.8;" vertex="1" parent="79">
                    <mxGeometry y="102" width="30" height="24" as="geometry"/>
                </mxCell>
                <mxCell id="87" value="Type" style="shape=partialRectangle;top=0;right=0;bottom=0;part=1;resizeHeight=0;align=left;verticalAlign=top;spacingLeft=4;spacingRight=4;overflow=hidden;rotatable=0;points=[[0,0.5],[1,0.5]];portConstraint=eastwest;swimlaneFillColor=#ffffff;whiteSpace=wrap;fontSize=13;fillColor=none;strokeOpacity=100;fillOpacity=100;spacing=0;strokeColor=#282c33;rounded=1;absoluteArcSize=1;arcSize=7.5;strokeWidth=0.8;" vertex="1" parent="79">
                    <mxGeometry x="30" y="102" width="180" height="24" as="geometry"/>
                </mxCell>
                <mxCell id="88" value="Field" style="strokeColor=none;part=1;resizeHeight=0;align=left;verticalAlign=top;spacingLeft=4;spacingRight=4;overflow=hidden;rotatable=0;points=[[0,0.5],[1,0.5]];portConstraint=eastwest;swimlaneFillColor=#ffffff;whiteSpace=wrap;fontSize=13;fillColor=none;strokeOpacity=100;fillOpacity=100;spacing=0;rounded=1;absoluteArcSize=1;arcSize=7.5;strokeWidth=0.8;" vertex="1" parent="79">
                    <mxGeometry y="126" width="30" height="24" as="geometry"/>
                </mxCell>
                <mxCell id="89" value="Type" style="shape=partialRectangle;top=0;right=0;bottom=0;part=1;resizeHeight=0;align=left;verticalAlign=top;spacingLeft=4;spacingRight=4;overflow=hidden;rotatable=0;points=[[0,0.5],[1,0.5]];portConstraint=eastwest;swimlaneFillColor=#ffffff;whiteSpace=wrap;fontSize=13;fillColor=none;strokeOpacity=100;fillOpacity=100;spacing=0;strokeColor=#282c33;rounded=1;absoluteArcSize=1;arcSize=7.5;strokeWidth=0.8;" vertex="1" parent="79">
                    <mxGeometry x="30" y="126" width="180" height="24" as="geometry"/>
                </mxCell>
                <mxCell id="90" value="Entity" style="html=1;overflow=block;blockSpacing=1;swimlane;resizeParent=1;resizeParentMax=0;resizeLast=0;collapsible=0;marginBottom=0;fontStyle=0;swimlaneFillColor=#ffffff;startSize=30;whiteSpace=wrap;fontSize=13;align=left;fillColor=#e0e0e0;spacing=0;strokeColor=#282c33;strokeOpacity=100;fillOpacity=100;rounded=1;absoluteArcSize=1;arcSize=7.5;strokeWidth=0.8;" vertex="1" parent="1">
                    <mxGeometry x="875" y="116" width="210" height="75" as="geometry"/>
                </mxCell>
                <mxCell id="91" value="Field" style="strokeColor=none;part=1;resizeHeight=0;align=left;verticalAlign=top;spacingLeft=4;spacingRight=4;overflow=hidden;rotatable=0;points=[[0,0.5],[1,0.5]];portConstraint=eastwest;swimlaneFillColor=#ffffff;whiteSpace=wrap;fontSize=13;fillColor=none;strokeOpacity=100;fillOpacity=100;spacing=0;rounded=1;absoluteArcSize=1;arcSize=7.5;strokeWidth=0.8;" vertex="1" parent="90">
                    <mxGeometry y="30" width="30" height="24" as="geometry"/>
                </mxCell>
                <mxCell id="92" value="PK" style="shape=partialRectangle;top=0;right=0;bottom=0;part=1;resizeHeight=0;align=left;verticalAlign=top;spacingLeft=4;spacingRight=4;overflow=hidden;rotatable=0;points=[[0,0.5],[1,0.5]];portConstraint=eastwest;swimlaneFillColor=#ffffff;whiteSpace=wrap;fontSize=13;fillColor=none;strokeOpacity=100;fillOpacity=100;spacing=0;strokeColor=#282c33;rounded=1;absoluteArcSize=1;arcSize=7.5;strokeWidth=0.8;" vertex="1" parent="90">
                    <mxGeometry x="30" y="30" width="180" height="24" as="geometry"/>
                </mxCell>
                <mxCell id="93" value="Field" style="strokeColor=none;part=1;resizeHeight=0;align=left;verticalAlign=top;spacingLeft=4;spacingRight=4;overflow=hidden;rotatable=0;points=[[0,0.5],[1,0.5]];portConstraint=eastwest;swimlaneFillColor=#ffffff;whiteSpace=wrap;fontSize=13;fillColor=none;strokeOpacity=100;fillOpacity=100;spacing=0;rounded=1;absoluteArcSize=1;arcSize=7.5;strokeWidth=0.8;" vertex="1" parent="90">
                    <mxGeometry y="54" width="30" height="24" as="geometry"/>
                </mxCell>
                <mxCell id="94" value="Type" style="shape=partialRectangle;top=0;right=0;bottom=0;part=1;resizeHeight=0;align=left;verticalAlign=top;spacingLeft=4;spacingRight=4;overflow=hidden;rotatable=0;points=[[0,0.5],[1,0.5]];portConstraint=eastwest;swimlaneFillColor=#ffffff;whiteSpace=wrap;fontSize=13;fillColor=none;strokeOpacity=100;fillOpacity=100;spacing=0;strokeColor=#282c33;rounded=1;absoluteArcSize=1;arcSize=7.5;strokeWidth=0.8;" vertex="1" parent="90">
                    <mxGeometry x="30" y="54" width="180" height="24" as="geometry"/>
                </mxCell>
                <mxCell id="95" value="Entity" style="html=1;overflow=block;blockSpacing=1;swimlane;resizeParent=1;resizeParentMax=0;resizeLast=0;collapsible=0;marginBottom=0;fontStyle=0;swimlaneFillColor=#ffffff;startSize=30;whiteSpace=wrap;fontSize=13;align=left;fillColor=#e0e0e0;spacing=0;strokeColor=#282c33;strokeOpacity=100;fillOpacity=100;rounded=1;absoluteArcSize=1;arcSize=7.5;strokeWidth=0.8;" vertex="1" parent="1">
                    <mxGeometry x="575" y="407" width="195" height="126" as="geometry"/>
                </mxCell>
                <mxCell id="96" value="Field" style="strokeColor=none;part=1;resizeHeight=0;align=left;verticalAlign=top;spacingLeft=4;spacingRight=4;overflow=hidden;rotatable=0;points=[[0,0.5],[1,0.5]];portConstraint=eastwest;swimlaneFillColor=#ffffff;whiteSpace=wrap;fontSize=13;fillColor=none;strokeOpacity=100;fillOpacity=100;spacing=0;rounded=1;absoluteArcSize=1;arcSize=7.5;strokeWidth=0.8;" vertex="1" parent="95">
                    <mxGeometry y="30" width="103.7098759318961" height="24" as="geometry"/>
                </mxCell>
                <mxCell id="97" value="Type" style="shape=partialRectangle;top=0;right=0;bottom=0;part=1;resizeHeight=0;align=left;verticalAlign=top;spacingLeft=4;spacingRight=4;overflow=hidden;rotatable=0;points=[[0,0.5],[1,0.5]];portConstraint=eastwest;swimlaneFillColor=#ffffff;whiteSpace=wrap;fontSize=13;fillColor=none;strokeOpacity=100;fillOpacity=100;spacing=0;strokeColor=#282c33;rounded=1;absoluteArcSize=1;arcSize=7.5;strokeWidth=0.8;" vertex="1" parent="95">
                    <mxGeometry x="103.7098759318961" y="30" width="91.2901240681039" height="24" as="geometry"/>
                </mxCell>
                <mxCell id="98" value="Field" style="strokeColor=none;part=1;resizeHeight=0;align=left;verticalAlign=top;spacingLeft=4;spacingRight=4;overflow=hidden;rotatable=0;points=[[0,0.5],[1,0.5]];portConstraint=eastwest;swimlaneFillColor=#ffffff;whiteSpace=wrap;fontSize=13;fillColor=none;strokeOpacity=100;fillOpacity=100;spacing=0;rounded=1;absoluteArcSize=1;arcSize=7.5;strokeWidth=0.8;" vertex="1" parent="95">
                    <mxGeometry y="54" width="103.7098759318961" height="24" as="geometry"/>
                </mxCell>
                <mxCell id="99" value="Type" style="shape=partialRectangle;top=0;right=0;bottom=0;part=1;resizeHeight=0;align=left;verticalAlign=top;spacingLeft=4;spacingRight=4;overflow=hidden;rotatable=0;points=[[0,0.5],[1,0.5]];portConstraint=eastwest;swimlaneFillColor=#ffffff;whiteSpace=wrap;fontSize=13;fillColor=none;strokeOpacity=100;fillOpacity=100;spacing=0;strokeColor=#282c33;rounded=1;absoluteArcSize=1;arcSize=7.5;strokeWidth=0.8;" vertex="1" parent="95">
                    <mxGeometry x="103.7098759318961" y="54" width="91.2901240681039" height="24" as="geometry"/>
                </mxCell>
                <mxCell id="100" value="Field" style="strokeColor=none;part=1;resizeHeight=0;align=left;verticalAlign=top;spacingLeft=4;spacingRight=4;overflow=hidden;rotatable=0;points=[[0,0.5],[1,0.5]];portConstraint=eastwest;swimlaneFillColor=#ffffff;whiteSpace=wrap;fontSize=13;fillColor=none;strokeOpacity=100;fillOpacity=100;spacing=0;rounded=1;absoluteArcSize=1;arcSize=7.5;strokeWidth=0.8;" vertex="1" parent="95">
                    <mxGeometry y="78" width="103.7098759318961" height="24" as="geometry"/>
                </mxCell>
                <mxCell id="101" value="Type" style="shape=partialRectangle;top=0;right=0;bottom=0;part=1;resizeHeight=0;align=left;verticalAlign=top;spacingLeft=4;spacingRight=4;overflow=hidden;rotatable=0;points=[[0,0.5],[1,0.5]];portConstraint=eastwest;swimlaneFillColor=#ffffff;whiteSpace=wrap;fontSize=13;fillColor=none;strokeOpacity=100;fillOpacity=100;spacing=0;strokeColor=#282c33;rounded=1;absoluteArcSize=1;arcSize=7.5;strokeWidth=0.8;" vertex="1" parent="95">
                    <mxGeometry x="103.7098759318961" y="78" width="91.2901240681039" height="24" as="geometry"/>
                </mxCell>
                <mxCell id="102" value="Field" style="strokeColor=none;part=1;resizeHeight=0;align=left;verticalAlign=top;spacingLeft=4;spacingRight=4;overflow=hidden;rotatable=0;points=[[0,0.5],[1,0.5]];portConstraint=eastwest;swimlaneFillColor=#ffffff;whiteSpace=wrap;fontSize=13;fillColor=none;strokeOpacity=100;fillOpacity=100;spacing=0;rounded=1;absoluteArcSize=1;arcSize=7.5;strokeWidth=0.8;" vertex="1" parent="95">
                    <mxGeometry y="102" width="103.7098759318961" height="24" as="geometry"/>
                </mxCell>
                <mxCell id="103" value="Type" style="shape=partialRectangle;top=0;right=0;bottom=0;part=1;resizeHeight=0;align=left;verticalAlign=top;spacingLeft=4;spacingRight=4;overflow=hidden;rotatable=0;points=[[0,0.5],[1,0.5]];portConstraint=eastwest;swimlaneFillColor=#ffffff;whiteSpace=wrap;fontSize=13;fillColor=none;strokeOpacity=100;fillOpacity=100;spacing=0;strokeColor=#282c33;rounded=1;absoluteArcSize=1;arcSize=7.5;strokeWidth=0.8;" vertex="1" parent="95">
                    <mxGeometry x="103.7098759318961" y="102" width="91.2901240681039" height="24" as="geometry"/>
                </mxCell>
                <UserObject label="" lucidchartObjectId="4xwLNNhIQqrS" id="104">
                    <mxCell style="html=1;overflow=block;blockSpacing=1;whiteSpace=wrap;fontSize=13;spacing=0;strokeColor=#4c535d;strokeOpacity=100;fillOpacity=100;rounded=1;absoluteArcSize=1;arcSize=12;fillColor=#ffffff;strokeWidth=0.8;" vertex="1" parent="1">
                        <mxGeometry x="229" y="118" width="212" height="135" as="geometry"/>
                    </mxCell>
                </UserObject>
                <mxCell id="105" value="Entity" style="html=1;overflow=block;blockSpacing=1;swimlane;resizeParent=1;resizeParentMax=0;resizeLast=0;collapsible=0;marginBottom=0;fontStyle=0;swimlaneFillColor=#ffffff;startSize=30;whiteSpace=wrap;fontSize=13;align=left;fillColor=#e0e0e0;spacing=0;strokeColor=#282c33;strokeOpacity=100;fillOpacity=100;rounded=1;absoluteArcSize=1;arcSize=7.5;strokeWidth=0.8;" vertex="1" parent="1">
                    <mxGeometry x="875" y="407" width="210" height="126" as="geometry"/>
                </mxCell>
                <mxCell id="106" value="Field" style="strokeColor=none;part=1;resizeHeight=0;align=left;verticalAlign=top;spacingLeft=4;spacingRight=4;overflow=hidden;rotatable=0;points=[[0,0.5],[1,0.5]];portConstraint=eastwest;swimlaneFillColor=#ffffff;whiteSpace=wrap;fontSize=13;fillColor=none;strokeOpacity=100;fillOpacity=100;spacing=0;rounded=1;absoluteArcSize=1;arcSize=7.5;strokeWidth=0.8;" vertex="1" parent="105">
                    <mxGeometry y="30" width="103.7098759318961" height="24" as="geometry"/>
                </mxCell>
                <mxCell id="107" value="Type" style="shape=partialRectangle;top=0;right=0;bottom=0;part=1;resizeHeight=0;align=left;verticalAlign=top;spacingLeft=4;spacingRight=4;overflow=hidden;rotatable=0;points=[[0,0.5],[1,0.5]];portConstraint=eastwest;swimlaneFillColor=#ffffff;whiteSpace=wrap;fontSize=13;fillColor=none;strokeOpacity=100;fillOpacity=100;spacing=0;strokeColor=#282c33;rounded=1;absoluteArcSize=1;arcSize=7.5;strokeWidth=0.8;" vertex="1" parent="105">
                    <mxGeometry x="103.7098759318961" y="30" width="106.2901240681039" height="24" as="geometry"/>
                </mxCell>
                <mxCell id="108" value="Field" style="strokeColor=none;part=1;resizeHeight=0;align=left;verticalAlign=top;spacingLeft=4;spacingRight=4;overflow=hidden;rotatable=0;points=[[0,0.5],[1,0.5]];portConstraint=eastwest;swimlaneFillColor=#ffffff;whiteSpace=wrap;fontSize=13;fillColor=none;strokeOpacity=100;fillOpacity=100;spacing=0;rounded=1;absoluteArcSize=1;arcSize=7.5;strokeWidth=0.8;" vertex="1" parent="105">
                    <mxGeometry y="54" width="103.7098759318961" height="24" as="geometry"/>
                </mxCell>
                <mxCell id="109" value="Type" style="shape=partialRectangle;top=0;right=0;bottom=0;part=1;resizeHeight=0;align=left;verticalAlign=top;spacingLeft=4;spacingRight=4;overflow=hidden;rotatable=0;points=[[0,0.5],[1,0.5]];portConstraint=eastwest;swimlaneFillColor=#ffffff;whiteSpace=wrap;fontSize=13;fillColor=none;strokeOpacity=100;fillOpacity=100;spacing=0;strokeColor=#282c33;rounded=1;absoluteArcSize=1;arcSize=7.5;strokeWidth=0.8;" vertex="1" parent="105">
                    <mxGeometry x="103.7098759318961" y="54" width="106.2901240681039" height="24" as="geometry"/>
                </mxCell>
                <mxCell id="110" value="Field" style="strokeColor=none;part=1;resizeHeight=0;align=left;verticalAlign=top;spacingLeft=4;spacingRight=4;overflow=hidden;rotatable=0;points=[[0,0.5],[1,0.5]];portConstraint=eastwest;swimlaneFillColor=#ffffff;whiteSpace=wrap;fontSize=13;fillColor=none;strokeOpacity=100;fillOpacity=100;spacing=0;rounded=1;absoluteArcSize=1;arcSize=7.5;strokeWidth=0.8;" vertex="1" parent="105">
                    <mxGeometry y="78" width="103.7098759318961" height="24" as="geometry"/>
                </mxCell>
                <mxCell id="111" value="Type" style="shape=partialRectangle;top=0;right=0;bottom=0;part=1;resizeHeight=0;align=left;verticalAlign=top;spacingLeft=4;spacingRight=4;overflow=hidden;rotatable=0;points=[[0,0.5],[1,0.5]];portConstraint=eastwest;swimlaneFillColor=#ffffff;whiteSpace=wrap;fontSize=13;fillColor=none;strokeOpacity=100;fillOpacity=100;spacing=0;strokeColor=#282c33;rounded=1;absoluteArcSize=1;arcSize=7.5;strokeWidth=0.8;" vertex="1" parent="105">
                    <mxGeometry x="103.7098759318961" y="78" width="106.2901240681039" height="24" as="geometry"/>
                </mxCell>
                <mxCell id="112" value="Field" style="strokeColor=none;part=1;resizeHeight=0;align=left;verticalAlign=top;spacingLeft=4;spacingRight=4;overflow=hidden;rotatable=0;points=[[0,0.5],[1,0.5]];portConstraint=eastwest;swimlaneFillColor=#ffffff;whiteSpace=wrap;fontSize=13;fillColor=none;strokeOpacity=100;fillOpacity=100;spacing=0;rounded=1;absoluteArcSize=1;arcSize=7.5;strokeWidth=0.8;" vertex="1" parent="105">
                    <mxGeometry y="102" width="103.7098759318961" height="24" as="geometry"/>
                </mxCell>
                <mxCell id="113" value="Type" style="shape=partialRectangle;top=0;right=0;bottom=0;part=1;resizeHeight=0;align=left;verticalAlign=top;spacingLeft=4;spacingRight=4;overflow=hidden;rotatable=0;points=[[0,0.5],[1,0.5]];portConstraint=eastwest;swimlaneFillColor=#ffffff;whiteSpace=wrap;fontSize=13;fillColor=none;strokeOpacity=100;fillOpacity=100;spacing=0;strokeColor=#282c33;rounded=1;absoluteArcSize=1;arcSize=7.5;strokeWidth=0.8;" vertex="1" parent="105">
                    <mxGeometry x="103.7098759318961" y="102" width="106.2901240681039" height="24" as="geometry"/>
                </mxCell>
                <mxCell id="114" value="" style="group;dropTarget=0;pointerEvents=0;" vertex="1" parent="1">
                    <mxGeometry x="1104" y="402" width="33" height="36" as="geometry"/>
                </mxCell>
                <UserObject label="" lucidchartObjectId="nRTaxofvfbN5" id="115">
                    <mxCell style="html=1;overflow=block;blockSpacing=1;whiteSpace=wrap;fontSize=13;spacing=0;strokeOpacity=100;rotation=94.8339553269569;flipH=1;fillColor=#ffffff;strokeWidth=6;" vertex="1" parent="114">
                        <mxGeometry x="9" width="24" height="36" as="geometry"/>
                    </mxCell>
                </UserObject>
                <UserObject label="" lucidchartObjectId="nRTaPhVZ~lFz" id="116">
                    <mxCell style="html=1;overflow=block;blockSpacing=1;whiteSpace=wrap;fontSize=13;spacing=0;strokeOpacity=100;rotation=4.833955326956932;flipH=1;fillColor=#ffffff;strokeWidth=6;" vertex="1" parent="114">
                        <mxGeometry y="18" width="4" height="11" as="geometry"/>
                    </mxCell>
                </UserObject>
                <UserObject label="" lucidchartObjectId="nRTaVE25hGE1" id="117">
                    <mxCell style="html=1;overflow=block;blockSpacing=1;whiteSpace=wrap;fontSize=13;spacing=0;strokeOpacity=100;rotation=4.833955326956932;flipH=1;fillColor=#ffffff;strokeWidth=6;" vertex="1" parent="114">
                        <mxGeometry y="26" width="13" height="4" as="geometry"/>
                    </mxCell>
                </UserObject>
                <mxCell id="118" value="" style="html=1;overflow=block;blockSpacing=1;whiteSpace=wrap;fontSize=13;align=center;spacing=9;verticalAlign=middle;strokeOpacity=0;fillOpacity=100;rounded=1;absoluteArcSize=1;arcSize=9;fillColor=#000000;strokeWidth=7.5;container=1;collapsible=0;" vertex="1" parent="1">
                    <mxGeometry x="1155" y="392" width="45" height="42" as="geometry"/>
                </mxCell>
                <UserObject label="" lucidchartObjectId="nRTatqdHGy3Z" id="119">
                    <mxCell style="html=1;overflow=block;blockSpacing=1;whiteSpace=wrap;shape=image;fontSize=13;spacing=0;strokeColor=none;strokeOpacity=100;strokeWidth=0;image=https://images.lucid.app/images/c3427cf4-7af7-4ef2-bd10-7c80879799b0/content;imageAspect=0;" vertex="1" parent="118">
                        <mxGeometry x="5" y="4" width="34" height="34" as="geometry"/>
                    </mxCell>
                </UserObject>
                <mxCell id="120" value="Customize class shapes by selecting them and editing them in the contextual panel that appears." style="html=1;overflow=block;blockSpacing=1;whiteSpace=wrap;fontSize=9.3;align=left;spacing=3.8;verticalAlign=top;strokeColor=none;fillOpacity=0;fillColor=#ffffff;strokeWidth=0;container=1;collapsible=0;" vertex="1" parent="1">
                    <mxGeometry x="1209" y="390" width="211" height="46" as="geometry"/>
                </mxCell>
                <mxCell id="121" value="" style="html=1;overflow=block;blockSpacing=1;whiteSpace=wrap;fontSize=13;align=center;spacing=9;verticalAlign=middle;strokeOpacity=0;fillOpacity=100;rounded=1;absoluteArcSize=1;arcSize=9;fillColor=#000000;strokeWidth=7.5;container=1;collapsible=0;" vertex="1" parent="1">
                    <mxGeometry x="486" y="520" width="45" height="42" as="geometry"/>
                </mxCell>
                <UserObject label="" lucidchartObjectId="vVTatSv~5Vbo" id="122">
                    <mxCell style="html=1;overflow=block;blockSpacing=1;whiteSpace=wrap;shape=image;fontSize=13;spacing=0;strokeColor=none;strokeOpacity=100;strokeWidth=0;image=https://images.lucid.app/images/c3427cf4-7af7-4ef2-bd10-7c80879799b0/content;imageAspect=0;" vertex="1" parent="121">
                        <mxGeometry x="6" y="3" width="34" height="34" as="geometry"/>
                    </mxCell>
                </UserObject>
                <mxCell id="123" value="" style="group;dropTarget=0;pointerEvents=0;" vertex="1" parent="1">
                    <mxGeometry x="506" y="480" width="27" height="37" as="geometry"/>
                </mxCell>
                <UserObject label="" lucidchartObjectId="vVTaV95pp11H" id="124">
                    <mxCell style="html=1;overflow=block;blockSpacing=1;whiteSpace=wrap;fontSize=13;spacing=0;strokeOpacity=100;rotation=-175.1660446730431;fillColor=#ffffff;strokeWidth=6;" vertex="1" parent="123">
                        <mxGeometry y="1" width="24" height="36" as="geometry"/>
                    </mxCell>
                </UserObject>
                <UserObject label="" lucidchartObjectId="vVTa-2.K_vyB" id="125">
                    <mxCell style="html=1;overflow=block;blockSpacing=1;whiteSpace=wrap;fontSize=13;spacing=0;strokeOpacity=100;rotation=-175.50032192412058;fillColor=#ffffff;strokeWidth=6;" vertex="1" parent="123">
                        <mxGeometry x="22" y="1" width="4" height="11" as="geometry"/>
                    </mxCell>
                </UserObject>
                <UserObject label="" lucidchartObjectId="vVTatvFMi9LF" id="126">
                    <mxCell style="html=1;overflow=block;blockSpacing=1;whiteSpace=wrap;fontSize=13;spacing=0;strokeOpacity=100;rotation=-175.50032192412058;fillColor=#ffffff;strokeWidth=6;" vertex="1" parent="123">
                        <mxGeometry x="14" width="13" height="4" as="geometry"/>
                    </mxCell>
                </UserObject>
                <mxCell id="127" value="Add different endpoints by selecting a line and choosing from the dropdown in the top panel." style="html=1;overflow=block;blockSpacing=1;whiteSpace=wrap;fontSize=9.3;align=left;spacing=3.8;verticalAlign=top;strokeColor=none;fillOpacity=0;fillColor=#ffffff;strokeWidth=0;container=1;collapsible=0;" vertex="1" parent="1">
                    <mxGeometry x="315" y="523" width="165" height="46" as="geometry"/>
                </mxCell>
                <UserObject label="" lucidchartObjectId="FNtRkoZV4jUG" id="130">
                    <mxCell style="html=1;overflow=block;blockSpacing=1;whiteSpace=wrap;shape=image;fontSize=13;spacing=0;strokeColor=none;strokeOpacity=100;strokeWidth=0;image=https://images.lucid.app/images/06db5823-b0ba-4696-9800-591d1047a6c1/content;imageAspect=0;" vertex="1" parent="1">
                        <mxGeometry x="140" y="147" width="28" height="28" as="geometry"/>
                    </mxCell>
                </UserObject>
                <UserObject label="Comment" lucidchartObjectId="8NtRAPQz-hnC" id="131">
                    <mxCell style="html=1;overflow=block;blockSpacing=1;whiteSpace=wrap;fontSize=15;fontColor=#282c33;fontStyle=1;spacing=0;strokeColor=#282c33;strokeOpacity=100;fillOpacity=100;rounded=1;absoluteArcSize=1;arcSize=18;shadow=1;fillColor=#ffffff;strokeWidth=0.8;" vertex="1" parent="1">
                        <mxGeometry x="210" y="270" width="175" height="81" as="geometry"/>
                    </mxCell>
                </UserObject>
                <mxCell id="143" value="Field" style="html=1;overflow=block;blockSpacing=1;swimlane;resizeParent=1;resizeParentMax=0;resizeLast=0;collapsible=0;marginBottom=0;fontStyle=0;swimlaneFillColor=#ffffff;startSize=30;whiteSpace=wrap;fontSize=13;fillColor=#e0e0e0;spacing=0;strokeColor=#282c33;strokeOpacity=100;fillOpacity=100;rounded=1;absoluteArcSize=1;arcSize=7.5;strokeWidth=0.8;" vertex="1" parent="1">
                    <mxGeometry x="-120" y="780" width="390" height="77" as="geometry"/>
                </mxCell>
                <mxCell id="144" value="PK" style="strokeColor=none;part=1;resizeHeight=0;align=center;verticalAlign=top;spacingLeft=4;spacingRight=4;overflow=hidden;rotatable=0;points=[[0,0.5],[1,0.5]];portConstraint=eastwest;swimlaneFillColor=#ffffff;whiteSpace=wrap;fontSize=13;fillColor=none;strokeOpacity=100;fillOpacity=100;spacing=0;rounded=1;absoluteArcSize=1;arcSize=7.5;strokeWidth=0.8;" vertex="1" parent="143">
                    <mxGeometry y="30" width="103.7098759318961" as="geometry"/>
                </mxCell>
                <mxCell id="145" value="pokemon_id " style="shape=partialRectangle;top=0;right=0;bottom=0;part=1;resizeHeight=0;align=left;verticalAlign=top;spacingLeft=4;spacingRight=4;overflow=hidden;rotatable=0;points=[[0,0.5],[1,0.5]];portConstraint=eastwest;swimlaneFillColor=#ffffff;whiteSpace=wrap;fontSize=13;fillColor=none;strokeOpacity=100;fillOpacity=100;spacing=0;strokeColor=#282c33;rounded=1;absoluteArcSize=1;arcSize=7.5;strokeWidth=0.8;" vertex="1" parent="143">
                    <mxGeometry x="103.7098759318961" y="30" width="113.79012406810392" height="24" as="geometry"/>
                </mxCell>
                <mxCell id="146" value="Type" style="shape=partialRectangle;top=0;right=0;bottom=0;part=1;resizeHeight=0;align=left;verticalAlign=top;spacingLeft=4;spacingRight=4;overflow=hidden;rotatable=0;points=[[0,0.5],[1,0.5]];portConstraint=eastwest;swimlaneFillColor=#ffffff;whiteSpace=wrap;fontSize=13;fillColor=none;strokeOpacity=100;fillOpacity=100;spacing=0;strokeColor=#282c33;rounded=1;absoluteArcSize=1;arcSize=7.5;strokeWidth=0.8;" vertex="1" parent="143">
                    <mxGeometry x="217.5" y="30" width="172.5" height="24" as="geometry"/>
                </mxCell>
                <mxCell id="147" value="" style="strokeColor=none;part=1;resizeHeight=0;align=center;verticalAlign=top;spacingLeft=4;spacingRight=4;overflow=hidden;rotatable=0;points=[[0,0.5],[1,0.5]];portConstraint=eastwest;swimlaneFillColor=#ffffff;whiteSpace=wrap;fontSize=13;fillColor=none;strokeOpacity=100;fillOpacity=100;spacing=0;rounded=1;absoluteArcSize=1;arcSize=7.5;strokeWidth=0.8;" vertex="1" parent="143">
                    <mxGeometry width="103.7098759318961" as="geometry"/>
                </mxCell>
                <mxCell id="148" value="Field" style="shape=partialRectangle;top=0;right=0;bottom=0;part=1;resizeHeight=0;align=left;verticalAlign=top;spacingLeft=4;spacingRight=4;overflow=hidden;rotatable=0;points=[[0,0.5],[1,0.5]];portConstraint=eastwest;swimlaneFillColor=#ffffff;whiteSpace=wrap;fontSize=13;fillColor=none;strokeOpacity=100;fillOpacity=100;spacing=0;strokeColor=#282c33;rounded=1;absoluteArcSize=1;arcSize=7.5;strokeWidth=0.8;" vertex="1" parent="143">
                    <mxGeometry x="103.7098759318961" width="113.79012406810392" height="24" as="geometry"/>
                </mxCell>
                <mxCell id="149" value="Type" style="shape=partialRectangle;top=0;right=0;bottom=0;part=1;resizeHeight=0;align=left;verticalAlign=top;spacingLeft=4;spacingRight=4;overflow=hidden;rotatable=0;points=[[0,0.5],[1,0.5]];portConstraint=eastwest;swimlaneFillColor=#ffffff;whiteSpace=wrap;fontSize=13;fillColor=none;strokeOpacity=100;fillOpacity=100;spacing=0;strokeColor=#282c33;rounded=1;absoluteArcSize=1;arcSize=7.5;strokeWidth=0.8;" vertex="1" parent="143">
                    <mxGeometry x="217.5" width="172.5" height="24" as="geometry"/>
                </mxCell>
            </root>
        </mxGraphModel>
    </diagram>
</mxfile>